<?xml version="1.0" encoding="UTF-8" standalone="no"?>
<!DOCTYPE svg PUBLIC "-//W3C//DTD SVG 1.1//EN" "http://www.w3.org/Graphics/SVG/1.1/DTD/svg11.dtd">
<svg width="100%" height="100%" viewBox="0 0 850 200" version="1.1" xmlns="http://www.w3.org/2000/svg" xmlns:xlink="http://www.w3.org/1999/xlink" xml:space="preserve" xmlns:serif="http://www.serif.com/" style="fill-rule:evenodd;clip-rule:evenodd;stroke-linejoin:round;stroke-miterlimit:2;">
    <g transform="matrix(0.750742,0,0,0.750742,14,14.4846)">
        <path d="M0,108.1L32.08,227.83L0,227.83L0,108.1" style="fill:white;"/>
        <path d="M119.73,0L0,32.08L0,0L119.73,0" style="fill:white;"/>
        <path d="M176.77,5.05L5.05,51.06L51.06,222.78L222.78,176.77L176.77,5.05M41,55.86L117.54,116.92C117.54,116.92 121.32,119.2 119.11,122.76C118.97,122.98 118.83,123.19 118.68,123.37C118.65,123.41 118.62,123.44 118.6,123.47C118.55,123.53 118.51,123.58 118.46,123.63C118.39,123.71 118.32,123.78 118.26,123.86C118.21,123.91 118.16,123.95 118.11,124C118.07,124.04 118.03,124.07 117.99,124.11C117.97,124.13 117.94,124.15 117.92,124.17C117.88,124.21 117.84,124.24 117.8,124.28C117.75,124.31 117.71,124.35 117.67,124.38C117.64,124.4 117.6,124.43 117.57,124.45C117.52,124.48 117.47,124.51 117.43,124.54C117.37,124.58 117.31,124.61 117.25,124.64C117.2,124.67 117.13,124.71 117.08,124.73C117.06,124.73 117.05,124.74 117.03,124.75C116.99,124.77 116.94,124.79 116.9,124.81L116.88,124.81C116.83,124.83 116.77,124.86 116.72,124.88C116.66,124.9 116.61,124.92 116.54,124.94C116.49,124.96 116.43,124.97 116.37,124.99C115.39,125.25 114.47,125.08 113.82,124.85C113.75,124.82 113.67,124.79 113.6,124.77C113.15,124.59 112.88,124.42 112.88,124.42L22.66,60.77L40.99,55.86L41,55.86ZM176.24,136.75L175.66,174.96L137.6,175.4L126.22,159.74L124.18,179.11L90.8,197.71L71.39,164.96L79.35,147.09L61.95,149.85L35.34,122.42L61.95,95.19L88.02,112.93L78.99,122.17L91.21,134.76L99.2,133.49L95.55,141.7L104.46,156.73L119.79,148.19L120.72,139.3L125.95,146.49L143.43,146.29L143.7,128.74L136.48,123.49L143.98,120.61L148.31,103.68L131.43,98.88L122.96,105.74L121.81,94.86L106.58,86.3L100.29,96.82L75.79,77.11L95.4,44.31L128.58,62.96L131.07,86.67L149.53,71.72L186.28,82.17L176.85,119.05L160.52,125.31L176.25,136.74L176.24,136.75Z" style="fill:white;"/>
        <path d="M227.83,0L227.83,119.73L195.75,0L227.83,0" style="fill:white;"/>
        <path d="M108.1,227.83L227.83,195.75L227.83,227.83L108.1,227.83" style="fill:white;"/>
    </g>
    <g transform="matrix(2.95563,0,0,2.95563,-1055.62,-1510.76)">
        <path d="M638.316,535.937L638.316,553.063C638.316,557.789 634.479,561.626 629.753,561.626L548.843,561.626C544.117,561.626 540.28,557.789 540.28,553.063L540.28,535.937C540.28,531.211 544.117,527.374 548.843,527.374L629.753,527.374C634.479,527.374 638.316,531.211 638.316,535.937ZM585.118,555.77L591.451,555.77L591.451,533.226L585.118,533.226L585.118,555.77ZM604.685,544.825L612.031,555.77L619.63,555.77L611.321,543.975L619.282,533.226L611.651,533.226L604.685,543.249L604.685,533.226L598.353,533.226L598.353,555.77L604.685,555.77L604.685,544.825ZM563.905,543.224L567.483,555.77L572.738,555.77L579.831,533.226L573.593,533.226L570.041,545.549L566.533,533.226L561.309,533.226L557.816,545.493L554.28,533.226L547.979,533.226L555.071,555.77L560.327,555.77L563.905,543.224ZM624.284,555.77L630.616,555.77L630.616,533.226L624.284,533.226L624.284,555.77Z" style="fill:white;"/>
    </g>
    <g transform="matrix(2.80128,0,0,2.80128,-19909,-435)">
        <g transform="matrix(57.2379,0,0,57.2379,7190,204)">
            <path d="M0.043,-0L0.043,-0.282C0.043,-0.324 0.052,-0.361 0.07,-0.394C0.088,-0.426 0.114,-0.451 0.147,-0.47C0.18,-0.488 0.219,-0.497 0.263,-0.497C0.307,-0.497 0.345,-0.488 0.377,-0.469C0.409,-0.45 0.434,-0.421 0.451,-0.382L0.401,-0.382C0.418,-0.421 0.443,-0.45 0.475,-0.469C0.507,-0.488 0.545,-0.497 0.588,-0.497C0.633,-0.497 0.672,-0.488 0.705,-0.47C0.738,-0.451 0.763,-0.426 0.782,-0.394C0.8,-0.361 0.809,-0.324 0.809,-0.282L0.809,-0L0.656,-0L0.656,-0.275C0.656,-0.302 0.649,-0.324 0.636,-0.339C0.622,-0.354 0.603,-0.361 0.579,-0.361C0.555,-0.361 0.536,-0.354 0.523,-0.339C0.509,-0.324 0.502,-0.302 0.502,-0.275L0.502,-0L0.349,-0L0.349,-0.275C0.349,-0.302 0.342,-0.324 0.329,-0.339C0.316,-0.354 0.297,-0.361 0.273,-0.361C0.249,-0.361 0.23,-0.354 0.217,-0.339C0.203,-0.324 0.196,-0.302 0.196,-0.275L0.196,-0L0.043,-0Z" style="fill:white;fill-rule:nonzero;"/>
        </g>
        <g transform="matrix(57.2379,0,0,57.2379,7238.14,204)">
            <path d="M0.204,0.002L0.004,-0.486L0.169,-0.486L0.296,-0.099L0.235,-0.099L0.365,-0.486L0.53,-0.486L0.322,0.002L0.204,0.002ZM0.079,0.205L0.225,-0.11L0.322,0.002L0.236,0.205L0.079,0.205Z" style="fill:white;fill-rule:nonzero;"/>
        </g>
        <g transform="matrix(57.2379,0,0,57.2379,7267.1,204)">
            <path d="M0.231,0.012C0.202,0.012 0.174,0.008 0.147,0.001C0.119,-0.006 0.093,-0.017 0.07,-0.031C0.046,-0.044 0.026,-0.06 0.009,-0.078L0.096,-0.166C0.112,-0.149 0.131,-0.135 0.153,-0.126C0.175,-0.116 0.199,-0.111 0.225,-0.111C0.243,-0.111 0.257,-0.114 0.267,-0.119C0.276,-0.124 0.281,-0.132 0.281,-0.141C0.281,-0.153 0.275,-0.162 0.264,-0.169C0.252,-0.175 0.237,-0.181 0.219,-0.186C0.201,-0.191 0.182,-0.196 0.162,-0.202C0.142,-0.208 0.123,-0.216 0.105,-0.227C0.087,-0.238 0.072,-0.253 0.061,-0.272C0.05,-0.291 0.044,-0.315 0.044,-0.344C0.044,-0.375 0.052,-0.403 0.068,-0.426C0.084,-0.448 0.107,-0.467 0.136,-0.48C0.165,-0.493 0.2,-0.5 0.239,-0.5C0.28,-0.5 0.319,-0.493 0.354,-0.479C0.389,-0.464 0.417,-0.443 0.439,-0.415L0.352,-0.327C0.337,-0.345 0.32,-0.358 0.301,-0.365C0.282,-0.372 0.263,-0.376 0.245,-0.376C0.228,-0.376 0.215,-0.374 0.206,-0.369C0.197,-0.364 0.193,-0.356 0.193,-0.347C0.193,-0.337 0.199,-0.329 0.21,-0.323C0.221,-0.317 0.236,-0.312 0.254,-0.307C0.272,-0.302 0.291,-0.297 0.311,-0.29C0.331,-0.283 0.35,-0.274 0.368,-0.263C0.386,-0.252 0.401,-0.237 0.412,-0.218C0.423,-0.199 0.429,-0.174 0.429,-0.143C0.429,-0.096 0.411,-0.058 0.376,-0.03C0.34,-0.002 0.292,0.012 0.231,0.012Z" style="fill:white;fill-rule:nonzero;"/>
        </g>
    </g>
</svg>
