<?xml version="1.0" encoding="UTF-8" standalone="no"?>
<!DOCTYPE svg PUBLIC "-//W3C//DTD SVG 1.1//EN" "http://www.w3.org/Graphics/SVG/1.1/DTD/svg11.dtd">
<svg width="100%" height="100%" viewBox="0 0 850 200" version="1.1" xmlns="http://www.w3.org/2000/svg" xmlns:xlink="http://www.w3.org/1999/xlink" xml:space="preserve" xmlns:serif="http://www.serif.com/" style="fill-rule:evenodd;clip-rule:evenodd;stroke-linejoin:round;stroke-miterlimit:2;">
    <g id="SymbolLogo.svg" transform="matrix(0.752332,0,0,0.752332,100,100)">
        <g transform="matrix(1,0,0,1,-132.92,-132.92)">
            <g id="Layer_1-2">
                <g>
                    <rect x="19.01" y="19.01" width="227.83" height="227.83" style="fill:rgb(255,42,42);"/>
                    <path d="M0,56.18L209.67,0L265.84,209.67L56.18,265.84L0,56.18" style="fill:white;fill-rule:nonzero;"/>
                    <path d="M24.06,70.59L195.78,24.58L241.79,196.3L70.07,242.31L24.06,70.59" style="fill:rgb(29,29,157);fill-rule:nonzero;"/>
                    <path d="M195.84,138.06L179.51,144.33L195.24,155.76L194.66,193.97L156.6,194.41L145.22,178.75L143.18,198.11L109.8,216.71L90.39,183.96L98.35,166.09L80.95,168.85L54.34,141.42L80.95,114.19L107.02,131.93L97.99,141.17L110.21,153.76L118.2,152.5L114.54,160.71L123.46,175.74L138.78,167.2L139.72,158.31L144.94,165.5L162.42,165.3L162.69,147.76L155.46,142.51L162.96,139.63L167.29,122.7L150.41,117.9L141.94,124.76L140.79,113.88L125.56,105.31L119.27,115.83L94.77,96.12L114.38,63.32L147.56,81.97L150.05,105.68L168.51,90.73L205.27,101.18L195.84,138.06" style="fill:rgb(255,212,43);fill-rule:nonzero;"/>
                    <path d="M138.11,141.77C137.97,142 137.83,142.2 137.68,142.39C137.65,142.42 137.63,142.46 137.6,142.49C137.55,142.55 137.51,142.6 137.46,142.65C137.39,142.73 137.32,142.8 137.26,142.87C137.21,142.92 137.16,142.97 137.12,143.01C137.08,143.05 137.04,143.08 137,143.12C136.98,143.14 136.95,143.16 136.93,143.18C136.89,143.22 136.84,143.25 136.8,143.29C136.75,143.32 136.71,143.36 136.67,143.39C136.64,143.41 136.6,143.44 136.57,143.46C136.52,143.49 136.48,143.52 136.43,143.55C136.37,143.59 136.31,143.62 136.25,143.66C136.19,143.7 136.13,143.73 136.07,143.75C136.05,143.76 136.04,143.77 136.02,143.77C135.98,143.79 135.93,143.81 135.89,143.83L135.88,143.83C135.83,143.85 135.77,143.88 135.72,143.9C135.66,143.92 135.6,143.95 135.54,143.96C135.48,143.98 135.43,144 135.37,144.01C134.39,144.27 133.46,144.09 132.81,143.87C132.74,143.84 132.66,143.82 132.59,143.79C132.14,143.62 131.87,143.44 131.87,143.44L41.65,79.79L59.98,74.87L136.52,135.93C136.52,135.93 140.3,138.21 138.09,141.77" style="fill:rgb(255,212,43);fill-rule:nonzero;"/>
                </g>
            </g>
        </g>
    </g>
    <g transform="matrix(2.95563,0,0,2.95563,-1055.62,-1510.76)">
        <path d="M638.316,535.937L638.316,553.063C638.316,557.789 634.479,561.626 629.753,561.626L548.843,561.626C544.117,561.626 540.28,557.789 540.28,553.063L540.28,535.937C540.28,531.211 544.117,527.374 548.843,527.374L629.753,527.374C634.479,527.374 638.316,531.211 638.316,535.937ZM585.118,555.77L591.451,555.77L591.451,533.226L585.118,533.226L585.118,555.77ZM604.685,544.825L612.031,555.77L619.63,555.77L611.321,543.975L619.282,533.226L611.651,533.226L604.685,543.249L604.685,533.226L598.353,533.226L598.353,555.77L604.685,555.77L604.685,544.825ZM563.905,543.224L567.483,555.77L572.738,555.77L579.831,533.226L573.593,533.226L570.041,545.549L566.533,533.226L561.309,533.226L557.816,545.493L554.28,533.226L547.979,533.226L555.071,555.77L560.327,555.77L563.905,543.224ZM624.284,555.77L630.616,555.77L630.616,533.226L624.284,533.226L624.284,555.77Z" style="fill:rgb(255,73,73);"/>
    </g>
    <g transform="matrix(2.80128,0,0,2.80128,-19909,-435)">
        <g transform="matrix(57.2379,0,0,57.2379,7190,204)">
            <path d="M0.043,-0L0.043,-0.282C0.043,-0.324 0.052,-0.361 0.07,-0.394C0.088,-0.426 0.114,-0.451 0.147,-0.47C0.18,-0.488 0.219,-0.497 0.263,-0.497C0.307,-0.497 0.345,-0.488 0.377,-0.469C0.409,-0.45 0.434,-0.421 0.451,-0.382L0.401,-0.382C0.418,-0.421 0.443,-0.45 0.475,-0.469C0.507,-0.488 0.545,-0.497 0.588,-0.497C0.633,-0.497 0.672,-0.488 0.705,-0.47C0.738,-0.451 0.763,-0.426 0.782,-0.394C0.8,-0.361 0.809,-0.324 0.809,-0.282L0.809,-0L0.656,-0L0.656,-0.275C0.656,-0.302 0.649,-0.324 0.636,-0.339C0.622,-0.354 0.603,-0.361 0.579,-0.361C0.555,-0.361 0.536,-0.354 0.523,-0.339C0.509,-0.324 0.502,-0.302 0.502,-0.275L0.502,-0L0.349,-0L0.349,-0.275C0.349,-0.302 0.342,-0.324 0.329,-0.339C0.316,-0.354 0.297,-0.361 0.273,-0.361C0.249,-0.361 0.23,-0.354 0.217,-0.339C0.203,-0.324 0.196,-0.302 0.196,-0.275L0.196,-0L0.043,-0Z" style="fill:rgb(39,39,39);fill-rule:nonzero;"/>
        </g>
        <g transform="matrix(57.2379,0,0,57.2379,7238.14,204)">
            <path d="M0.204,0.002L0.004,-0.486L0.169,-0.486L0.296,-0.099L0.235,-0.099L0.365,-0.486L0.53,-0.486L0.322,0.002L0.204,0.002ZM0.079,0.205L0.225,-0.11L0.322,0.002L0.236,0.205L0.079,0.205Z" style="fill:rgb(39,39,39);fill-rule:nonzero;"/>
        </g>
        <g transform="matrix(57.2379,0,0,57.2379,7267.1,204)">
            <path d="M0.231,0.012C0.202,0.012 0.174,0.008 0.147,0.001C0.119,-0.006 0.093,-0.017 0.07,-0.031C0.046,-0.044 0.026,-0.06 0.009,-0.078L0.096,-0.166C0.112,-0.149 0.131,-0.135 0.153,-0.126C0.175,-0.116 0.199,-0.111 0.225,-0.111C0.243,-0.111 0.257,-0.114 0.267,-0.119C0.276,-0.124 0.281,-0.132 0.281,-0.141C0.281,-0.153 0.275,-0.162 0.264,-0.169C0.252,-0.175 0.237,-0.181 0.219,-0.186C0.201,-0.191 0.182,-0.196 0.162,-0.202C0.142,-0.208 0.123,-0.216 0.105,-0.227C0.087,-0.238 0.072,-0.253 0.061,-0.272C0.05,-0.291 0.044,-0.315 0.044,-0.344C0.044,-0.375 0.052,-0.403 0.068,-0.426C0.084,-0.448 0.107,-0.467 0.136,-0.48C0.165,-0.493 0.2,-0.5 0.239,-0.5C0.28,-0.5 0.319,-0.493 0.354,-0.479C0.389,-0.464 0.417,-0.443 0.439,-0.415L0.352,-0.327C0.337,-0.345 0.32,-0.358 0.301,-0.365C0.282,-0.372 0.263,-0.376 0.245,-0.376C0.228,-0.376 0.215,-0.374 0.206,-0.369C0.197,-0.364 0.193,-0.356 0.193,-0.347C0.193,-0.337 0.199,-0.329 0.21,-0.323C0.221,-0.317 0.236,-0.312 0.254,-0.307C0.272,-0.302 0.291,-0.297 0.311,-0.29C0.331,-0.283 0.35,-0.274 0.368,-0.263C0.386,-0.252 0.401,-0.237 0.412,-0.218C0.423,-0.199 0.429,-0.174 0.429,-0.143C0.429,-0.096 0.411,-0.058 0.376,-0.03C0.34,-0.002 0.292,0.012 0.231,0.012Z" style="fill:rgb(39,39,39);fill-rule:nonzero;"/>
        </g>
    </g>
</svg>
